<svg xmlns="http://www.w3.org/2000/svg" width="133" height="25" viewBox="0 0 133 25" fill="none">
<g clip-path="url(#clip0_301_28)">
<path d="M9.27099 20.6609C6.72039 23.184 2.40064 23.174 1.19425 19.8113C0.958057 19.1529 0.769211 18.476 0.630316 17.7852C0.0632085 14.9649 0.354269 12.0416 1.46669 9.38495C2.57911 6.72835 4.46293 4.45767 6.87993 2.86011C9.29696 1.26255 12.1386 0.409851 15.0455 0.409851C17.9524 0.409851 20.794 1.26255 23.2109 2.86011C25.628 4.45767 27.5118 6.72835 28.6242 9.38503C29.7366 12.0416 30.0276 14.9649 29.4606 17.7852C29.3217 18.476 29.1328 19.1529 28.8966 19.8113C27.6902 23.174 23.3705 23.184 20.8199 20.6609L16.8826 16.7662C16.5065 16.3941 16.5453 15.7804 16.6491 15.2643C16.7122 14.9506 16.6798 14.6254 16.556 14.3299C16.4322 14.0343 16.2227 13.7817 15.9538 13.604C15.685 13.4263 15.3688 13.3314 15.0455 13.3314C14.7221 13.3314 14.406 13.4263 14.1371 13.604C13.8681 13.7817 13.6586 14.0343 13.5348 14.3299C13.4111 14.6254 13.3787 14.9506 13.4418 15.2643C13.5456 15.7804 13.5844 16.3941 13.2082 16.7662L9.27099 20.6609Z" fill="url(#paint0_linear_301_28)"/>
</g>
<defs>
<linearGradient id="paint0_linear_301_28" x1="28.4051" y1="7.67934" x2="2.317" y2="7.67934" gradientUnits="userSpaceOnUse">
<stop stop-color="#161490"/>
<stop offset="0.510417" stop-color="#7476ED"/>
<stop offset="1" stop-color="#E56F8C"/>
</linearGradient>
<clipPath id="clip0_301_28">
<rect width="132.391" height="24.5027" fill="white" transform="translate(0.3479 0.409851)"/>
</clipPath>
</defs>
</svg>