<svg xmlns="http://www.w3.org/2000/svg" width="516" height="116" viewBox="0 0 516 116" fill="none">
<path d="M24.9904 11C24.6921 9.91335 24.2553 8.89595 23.68 7.9478C23.1048 6.98899 22.391 6.1527 21.5387 5.43892C20.6971 4.71449 19.7223 4.14986 18.6143 3.74503C17.517 3.3402 16.2919 3.13778 14.9389 3.13778C12.8082 3.13778 10.9013 3.69176 9.21804 4.79971C7.5348 5.90767 6.20313 7.50568 5.22301 9.59375C4.25355 11.6818 3.76882 14.196 3.76882 17.1364C3.76882 20.0661 4.25888 22.5749 5.23899 24.663C6.21911 26.7511 7.56143 28.3544 9.26598 29.473C10.9812 30.581 12.9414 31.1349 15.1467 31.1349C17.1602 31.1349 18.9393 30.6875 20.484 29.7926C22.0288 28.8977 23.2326 27.6193 24.0955 25.9574C24.9691 24.2955 25.3952 22.3192 25.3739 20.0288L26.3327 20.3324H15.8498V17.6477H28.2823V20.3324C28.2823 23.1236 27.7177 25.5366 26.5884 27.5714C25.4592 29.6062 23.9091 31.1776 21.9382 32.2855C19.9673 33.3935 17.7035 33.9474 15.1467 33.9474C12.2915 33.9474 9.79332 33.2603 7.65199 31.886C5.51065 30.5011 3.84339 28.5515 2.65021 26.0373C1.46768 23.5124 0.87642 20.5455 0.87642 17.1364C0.87642 14.5689 1.21733 12.2518 1.89915 10.185C2.58097 8.11825 3.5451 6.34979 4.79155 4.87961C6.04865 3.40944 7.5348 2.28551 9.25 1.50781C10.9652 0.719459 12.8615 0.325283 14.9389 0.325283C16.7287 0.325283 18.364 0.607598 19.8448 1.17223C21.3363 1.73686 22.6467 2.51456 23.7759 3.50533C24.9158 4.48544 25.848 5.62003 26.5724 6.90909C27.3075 8.1875 27.8029 9.55114 28.0586 11H24.9904ZM35.1098 33.5V8.95454H37.8744V12.7259H38.0821C38.5722 11.4901 39.4244 10.494 40.6389 9.73757C41.8641 8.97052 43.249 8.587 44.7938 8.587C45.0281 8.587 45.2892 8.59233 45.5768 8.60298C45.8644 8.61364 46.1041 8.62429 46.2959 8.63494V11.5273C46.1681 11.506 45.9443 11.4741 45.6247 11.4315C45.3051 11.3888 44.9589 11.3675 44.586 11.3675C43.3076 11.3675 42.1677 11.6392 41.1663 12.1825C40.1755 12.7152 39.3925 13.4556 38.8172 14.4038C38.2419 15.3519 37.9543 16.4332 37.9543 17.6477V33.5H35.1098ZM60.3264 34.0114C58.036 34.0114 56.0544 33.4787 54.3818 32.4134C52.7093 31.3374 51.4149 29.8512 50.4987 27.9549C49.5931 26.0479 49.1404 23.8533 49.1404 21.3711C49.1404 18.8995 49.5931 16.7049 50.4987 14.7873C51.4149 12.859 52.6773 11.3516 54.286 10.2649C55.9053 9.16761 57.7749 8.61896 59.895 8.61896C61.2267 8.61896 62.5104 8.86399 63.7462 9.35405C64.982 9.83345 66.0899 10.5739 67.07 11.5753C68.0608 12.5661 68.8438 13.8178 69.4191 15.3306C69.9944 16.8327 70.282 18.6119 70.282 20.668V22.0742H51.1059V19.5653H67.3737C67.3737 17.9886 67.0541 16.5717 66.4149 15.3146C65.7863 14.0469 64.9074 13.0455 63.7781 12.3104C62.6595 11.5753 61.3651 11.2077 59.895 11.2077C58.3396 11.2077 56.9706 11.6232 55.7881 12.4542C54.6056 13.2852 53.6787 14.3825 53.0075 15.7461C52.347 17.1097 52.0115 18.6012 52.0008 20.2205V21.7227C52.0008 23.6722 52.3364 25.3768 53.0075 26.8363C53.6894 28.2852 54.6535 29.4091 55.8999 30.2081C57.1464 31.0071 58.6219 31.4066 60.3264 31.4066C61.4877 31.4066 62.5051 31.2255 63.3786 30.8633C64.2629 30.5011 65.0033 30.0163 65.5999 29.4091C66.2071 28.7912 66.6652 28.1147 66.9742 27.3796L69.6748 28.2585C69.3019 29.2919 68.6894 30.2454 67.8371 31.119C66.9955 31.9925 65.9408 32.6957 64.673 33.2283C63.4159 33.7504 61.9671 34.0114 60.3264 34.0114ZM83.4057 34.0593C81.9249 34.0593 80.5719 33.7717 79.3468 33.1964C78.1216 32.6104 77.1468 31.7688 76.4224 30.6715C75.698 29.5636 75.3358 28.2212 75.3358 26.6445C75.3358 25.43 75.5648 24.4073 76.0229 23.5763C76.481 22.7454 77.1309 22.0636 77.9725 21.5309C78.8141 20.9982 79.8102 20.5774 80.9608 20.2685C82.1113 19.9595 83.3791 19.7198 84.764 19.5494C86.1383 19.3789 87.2995 19.2298 88.2477 19.1019C89.2065 18.9741 89.9363 18.7717 90.437 18.4947C90.9377 18.2177 91.188 17.7702 91.188 17.1523V16.5771C91.188 14.9045 90.6873 13.5888 89.6859 12.63C88.6951 11.6605 87.2676 11.1758 85.4032 11.1758C83.6348 11.1758 82.1912 11.5646 81.0726 12.3423C79.9647 13.12 79.187 14.0362 78.7395 15.0909L76.0389 14.1161C76.5929 12.7738 77.3599 11.7031 78.34 10.9041C79.3201 10.0945 80.4174 9.51385 81.6319 9.16229C82.8464 8.80007 84.0769 8.61896 85.3233 8.61896C86.2608 8.61896 87.2356 8.74148 88.2477 8.98651C89.2704 9.23153 90.2186 9.65767 91.0922 10.2649C91.9657 10.8615 92.6742 11.6978 93.2175 12.7738C93.7608 13.8391 94.0325 15.1921 94.0325 16.8327V33.5H91.188V29.6168H91.0123C90.6713 30.3413 90.1653 31.0444 89.4941 31.7262C88.823 32.408 87.9814 32.9673 86.9693 33.4041C85.9572 33.8409 84.7694 34.0593 83.4057 34.0593ZM83.7892 31.4545C85.302 31.4545 86.6124 31.119 87.7203 30.4478C88.8283 29.7766 89.6806 28.8871 90.2772 27.7791C90.8844 26.6605 91.188 25.43 91.188 24.0877V20.5401C90.975 20.7425 90.6181 20.9237 90.1174 21.0835C89.6273 21.2433 89.0574 21.3871 88.4075 21.5149C87.7683 21.6321 87.1291 21.7333 86.4899 21.8185C85.8507 21.9038 85.2754 21.9783 84.764 22.0423C83.3791 22.2127 82.1966 22.479 81.2164 22.8413C80.2363 23.2035 79.4853 23.7042 78.9632 24.3434C78.4412 24.9719 78.1802 25.7816 78.1802 26.7724C78.1802 28.2638 78.7129 29.4197 79.7782 30.2401C80.8436 31.0497 82.1806 31.4545 83.7892 31.4545ZM111.267 8.95454V11.4315H99.5536V8.95454H111.267ZM103.213 3.07386H106.074V27.092C106.074 28.1147 106.249 28.919 106.601 29.505C106.952 30.0803 107.411 30.4904 107.975 30.7354C108.54 30.9698 109.142 31.087 109.781 31.087C110.154 31.087 110.473 31.0657 110.74 31.0231C111.006 30.9698 111.24 30.9165 111.443 30.8633L112.05 33.4361C111.773 33.5426 111.432 33.6385 111.027 33.7237C110.623 33.8196 110.122 33.8675 109.525 33.8675C108.481 33.8675 107.474 33.6385 106.505 33.1804C105.546 32.7223 104.758 32.0405 104.14 31.1349C103.522 30.2294 103.213 29.1055 103.213 27.7631V3.07386ZM317.578 33.5V8.95454H320.439V33.5H317.578ZM319.032 4.73579C318.447 4.73579 317.946 4.53871 317.53 4.14453C317.115 3.7397 316.907 3.25497 316.907 2.69034C316.907 2.12571 317.115 1.64631 317.53 1.25213C317.946 0.8473 318.447 0.644884 319.032 0.644884C319.618 0.644884 320.119 0.8473 320.535 1.25213C320.95 1.64631 321.158 2.12571 321.158 2.69034C321.158 3.25497 320.95 3.7397 320.535 4.14453C320.119 4.53871 319.618 4.73579 319.032 4.73579ZM344.453 14.3398L341.848 15.0749C341.592 14.3398 341.23 13.674 340.761 13.0774C340.293 12.4808 339.68 12.0067 338.924 11.6552C338.178 11.3036 337.251 11.1278 336.143 11.1278C334.481 11.1278 333.118 11.522 332.052 12.3104C330.987 13.0987 330.454 14.1161 330.454 15.3626C330.454 16.4173 330.816 17.2749 331.541 17.9354C332.276 18.5852 333.405 19.1019 334.929 19.4854L338.636 20.3963C340.692 20.897 342.232 21.6907 343.254 22.7773C344.288 23.864 344.804 25.2276 344.804 26.8683C344.804 28.2532 344.421 29.4837 343.654 30.5597C342.887 31.6357 341.816 32.4826 340.442 33.1005C339.078 33.7077 337.496 34.0114 335.696 34.0114C333.299 34.0114 331.323 33.4734 329.767 32.3974C328.212 31.3107 327.216 29.7447 326.779 27.6992L329.511 27.0281C329.863 28.4876 330.55 29.5902 331.573 30.3359C332.606 31.0817 333.965 31.4545 335.648 31.4545C337.533 31.4545 339.041 31.0337 340.17 30.1921C341.299 29.3398 341.864 28.2745 341.864 26.9961C341.864 26.0053 341.534 25.1744 340.873 24.5032C340.213 23.8214 339.211 23.3207 337.869 23.0011L333.858 22.0423C331.727 21.5309 330.151 20.7212 329.128 19.6133C328.105 18.5053 327.594 17.131 327.594 15.4904C327.594 14.1374 327.961 12.9496 328.696 11.9268C329.432 10.8935 330.444 10.0838 331.733 9.49787C333.022 8.91193 334.492 8.61896 336.143 8.61896C338.391 8.61896 340.186 9.13033 341.528 10.1531C342.881 11.1651 343.856 12.5607 344.453 14.3398ZM0.917259 104.5V65.9545H10.1207V80.5408H10.3089C10.6854 79.6625 11.2186 78.8156 11.9087 78C12.6114 77.1844 13.5022 76.5194 14.5813 76.005C15.6729 75.478 16.9779 75.2145 18.4961 75.2145C20.5037 75.2145 22.3795 75.7415 24.1236 76.7955C25.8802 77.8494 27.2981 79.4743 28.3771 81.6701C29.4562 83.8659 29.9957 86.6639 29.9957 90.0643C29.9957 93.3391 29.475 96.0807 28.4336 98.2891C27.4047 100.497 26.012 102.154 24.2553 103.258C22.5112 104.362 20.5727 104.914 18.4396 104.914C16.9841 104.914 15.7231 104.676 14.6566 104.199C13.5901 103.722 12.6929 103.095 11.9652 102.317C11.25 101.539 10.6979 100.704 10.3089 99.8136H10.0266V104.5H0.917259ZM9.93253 90.0455C9.93253 91.6013 10.1396 92.9564 10.5536 94.1108C10.9802 95.2652 11.5888 96.1623 12.3793 96.8022C13.1823 97.4296 14.1422 97.7433 15.2589 97.7433C16.3881 97.7433 17.348 97.4296 18.1385 96.8022C18.929 96.1623 19.525 95.2652 19.9265 94.1108C20.3406 92.9564 20.5476 91.6013 20.5476 90.0455C20.5476 88.4896 20.3406 87.1407 19.9265 85.9989C19.525 84.8571 18.929 83.9725 18.1385 83.3452C17.3606 82.7178 16.4007 82.4041 15.2589 82.4041C14.1296 82.4041 13.1697 82.7115 12.3793 83.3263C11.5888 83.9412 10.9802 84.8195 10.5536 85.9613C10.1396 87.1031 9.93253 88.4645 9.93253 90.0455ZM53.4703 92.0217V75.5909H62.6549V104.5H53.8843V99.1172H53.5832C52.9433 100.886 51.8517 102.292 50.3083 103.333C48.7776 104.362 46.9268 104.876 44.7561 104.876C42.7862 104.876 41.0547 104.425 39.5615 103.521C38.0684 102.618 36.9078 101.357 36.0796 99.7383C35.2515 98.1071 34.8312 96.1999 34.8186 94.0167V75.5909H44.0221V92.2099C44.0347 93.7783 44.4487 95.0142 45.2643 95.9176C46.0799 96.821 47.1903 97.2727 48.5956 97.2727C49.5116 97.2727 50.3334 97.072 51.0612 96.6705C51.8015 96.2564 52.3849 95.6604 52.8115 94.8825C53.2507 94.092 53.4703 93.1384 53.4703 92.0217ZM68.513 104.5V75.5909H77.7164V104.5H68.513ZM73.1241 72.2219C71.8317 72.2219 70.7213 71.7953 69.7928 70.9421C68.8643 70.0763 68.4 69.0349 68.4 67.8178C68.4 66.6133 68.8643 65.5844 69.7928 64.7312C70.7213 63.8654 71.8317 63.4325 73.1241 63.4325C74.429 63.4325 75.5395 63.8654 76.4554 64.7312C77.3839 65.5844 77.8482 66.6133 77.8482 67.8178C77.8482 69.0349 77.3839 70.0763 76.4554 70.9421C75.5395 71.7953 74.429 72.2219 73.1241 72.2219ZM92.778 65.9545V104.5H83.5745V65.9545H92.778ZM114.954 75.5909V82.3665H96.7163V75.5909H114.954ZM100.537 68.6648H109.74V95.4094C109.74 95.9741 109.828 96.4321 110.004 96.7834C110.192 97.1222 110.462 97.3668 110.813 97.5174C111.165 97.6554 111.585 97.7244 112.074 97.7244C112.426 97.7244 112.796 97.6931 113.185 97.6303C113.586 97.555 113.887 97.4923 114.088 97.4421L115.481 104.086C115.042 104.211 114.421 104.368 113.618 104.556C112.827 104.745 111.88 104.864 110.776 104.914C108.617 105.014 106.767 104.763 105.223 104.161C103.693 103.546 102.519 102.593 101.704 101.3C100.901 100.008 100.512 98.3832 100.537 96.4258V68.6648ZM131.036 104.5V65.9545H140.24V80.5408H140.428C140.805 79.6625 141.338 78.8156 142.028 78C142.731 77.1844 143.621 76.5194 144.7 76.005C145.792 75.478 147.097 75.2145 148.615 75.2145C150.623 75.2145 152.499 75.7415 154.243 76.7955C155.999 77.8494 157.417 79.4743 158.496 81.6701C159.575 83.8659 160.115 86.6639 160.115 90.0643C160.115 93.3391 159.594 96.0807 158.553 98.2891C157.524 100.497 156.131 102.154 154.374 103.258C152.63 104.362 150.692 104.914 148.559 104.914C147.103 104.914 145.842 104.676 144.776 104.199C143.709 103.722 142.812 103.095 142.084 102.317C141.369 101.539 140.817 100.704 140.428 99.8136H140.146V104.5H131.036ZM140.052 90.0455C140.052 91.6013 140.259 92.9564 140.673 94.1108C141.099 95.2652 141.708 96.1623 142.498 96.8022C143.301 97.4296 144.261 97.7433 145.378 97.7433C146.507 97.7433 147.467 97.4296 148.258 96.8022C149.048 96.1623 149.644 95.2652 150.046 94.1108C150.46 92.9564 150.667 91.6013 150.667 90.0455C150.667 88.4896 150.46 87.1407 150.046 85.9989C149.644 84.8571 149.048 83.9725 148.258 83.3452C147.48 82.7178 146.52 82.4041 145.378 82.4041C144.249 82.4041 143.289 82.7115 142.498 83.3263C141.708 83.9412 141.099 84.8195 140.673 85.9613C140.259 87.1031 140.052 88.4645 140.052 90.0455ZM169.634 115.341C168.529 115.341 167.488 115.253 166.509 115.077C165.531 114.914 164.69 114.695 163.987 114.419L166.02 107.737C166.923 108.038 167.739 108.214 168.467 108.264C169.207 108.314 169.841 108.195 170.368 107.907C170.907 107.631 171.321 107.135 171.61 106.42L171.967 105.554L161.691 75.5909H171.328L176.654 96.2188H176.955L182.357 75.5909H192.049L181.152 107.267C180.625 108.848 179.879 110.24 178.912 111.445C177.959 112.662 176.723 113.616 175.205 114.306C173.699 114.996 171.842 115.341 169.634 115.341ZM220.441 115.943C217.693 115.943 215.34 115.56 213.383 114.795C211.426 114.03 209.889 112.982 208.772 111.652C207.655 110.322 206.984 108.816 206.758 107.135L215.472 106.646C215.635 107.235 215.936 107.75 216.376 108.189C216.827 108.628 217.411 108.967 218.126 109.205C218.854 109.444 219.707 109.563 220.686 109.563C222.229 109.563 223.503 109.186 224.506 108.434C225.523 107.693 226.031 106.395 226.031 104.538V99.456H225.711C225.347 100.347 224.795 101.144 224.055 101.846C223.314 102.549 222.392 103.101 221.288 103.502C220.196 103.904 218.942 104.105 217.524 104.105C215.416 104.105 213.483 103.615 211.727 102.637C209.983 101.645 208.584 100.115 207.53 98.0444C206.488 95.9615 205.968 93.2827 205.968 90.0078C205.968 86.6326 206.507 83.8533 207.586 81.6701C208.665 79.4743 210.077 77.8494 211.821 76.7955C213.578 75.7415 215.466 75.2145 217.486 75.2145C219.004 75.2145 220.303 75.478 221.382 76.005C222.474 76.5194 223.371 77.1844 224.073 78C224.776 78.8156 225.309 79.6625 225.673 80.5408H225.937V75.5909H235.103V104.613C235.103 107.06 234.488 109.124 233.258 110.805C232.028 112.486 230.309 113.76 228.101 114.626C225.893 115.504 223.339 115.943 220.441 115.943ZM220.723 97.4045C221.84 97.4045 222.794 97.1096 223.584 96.5199C224.375 95.9302 224.983 95.0832 225.41 93.979C225.836 92.8749 226.05 91.5511 226.05 90.0078C226.05 88.4394 225.836 87.0906 225.41 85.9613C224.996 84.8195 224.387 83.9412 223.584 83.3263C222.794 82.7115 221.84 82.4041 220.723 82.4041C219.581 82.4041 218.615 82.7178 217.825 83.3452C217.034 83.9725 216.432 84.8571 216.018 85.9989C215.617 87.1282 215.416 88.4645 215.416 90.0078C215.416 91.5511 215.623 92.8749 216.037 93.979C216.451 95.0832 217.047 95.9302 217.825 96.5199C218.615 97.1096 219.581 97.4045 220.723 97.4045ZM240.97 104.5V75.5909H249.91V80.8608H250.211C250.738 78.9536 251.598 77.5357 252.79 76.6072C253.982 75.6662 255.368 75.1957 256.949 75.1957C257.376 75.1957 257.815 75.227 258.267 75.2898C258.718 75.34 259.139 75.4215 259.528 75.5344V83.5334C259.088 83.3828 258.511 83.2636 257.796 83.1758C257.093 83.0879 256.466 83.044 255.914 83.044C254.822 83.044 253.837 83.2887 252.959 83.7781C252.093 84.2549 251.409 84.9261 250.907 85.7919C250.418 86.6451 250.173 87.6489 250.173 88.8033V104.5H240.97ZM275.29 105.046C272.266 105.046 269.656 104.45 267.461 103.258C265.277 102.053 263.596 100.341 262.417 98.1197C261.25 95.8862 260.666 93.2325 260.666 90.1584C260.666 87.1721 261.256 84.5623 262.435 82.3288C263.615 80.0829 265.277 78.3388 267.423 77.0966C269.569 75.8419 272.097 75.2145 275.008 75.2145C277.066 75.2145 278.948 75.5344 280.654 76.1744C282.361 76.8143 283.835 77.7616 285.077 79.0163C286.319 80.2711 287.285 81.8207 287.975 83.6651C288.666 85.497 289.011 87.5987 289.011 89.9702V92.2663H263.885V86.9212H280.447C280.435 85.9425 280.202 85.0704 279.751 84.305C279.299 83.5397 278.678 82.9437 277.887 82.517C277.109 82.0779 276.212 81.8583 275.196 81.8583C274.167 81.8583 273.245 82.0904 272.429 82.5547C271.614 83.0064 270.968 83.6275 270.491 84.418C270.014 85.1959 269.763 86.0805 269.738 87.0717V92.511C269.738 93.6905 269.97 94.7256 270.434 95.6165C270.899 96.4948 271.557 97.1786 272.411 97.668C273.264 98.1573 274.28 98.402 275.46 98.402C276.275 98.402 277.015 98.2891 277.68 98.0632C278.345 97.8374 278.916 97.5049 279.393 97.0657C279.87 96.6265 280.228 96.087 280.466 95.4471L288.917 95.6918C288.565 97.5864 287.794 99.2364 286.602 100.642C285.422 102.034 283.873 103.12 281.953 103.898C280.033 104.663 277.812 105.046 275.29 105.046ZM301.861 104.989C300.016 104.989 298.379 104.682 296.948 104.067C295.531 103.44 294.408 102.499 293.579 101.244C292.764 99.9767 292.356 98.3894 292.356 96.4822C292.356 94.8762 292.638 93.5211 293.203 92.4169C293.768 91.3127 294.546 90.4156 295.537 89.7255C296.528 89.0354 297.67 88.5147 298.962 88.1634C300.255 87.7995 301.635 87.5548 303.103 87.4293C304.747 87.2788 306.07 87.1219 307.074 86.9588C308.078 86.7831 308.806 86.5385 309.257 86.2248C309.722 85.8986 309.954 85.4406 309.954 84.8509V84.7567C309.954 83.7906 309.621 83.044 308.956 82.517C308.291 81.9901 307.394 81.7266 306.265 81.7266C305.048 81.7266 304.069 81.9901 303.329 82.517C302.588 83.044 302.118 83.7718 301.917 84.7003L293.429 84.3991C293.68 82.6425 294.326 81.0741 295.367 79.6939C296.421 78.3011 297.864 77.2095 299.696 76.419C301.541 75.616 303.755 75.2145 306.34 75.2145C308.185 75.2145 309.885 75.4341 311.441 75.8732C312.996 76.2998 314.352 76.9272 315.506 77.7553C316.66 78.5709 317.551 79.5747 318.179 80.7667C318.818 81.9587 319.138 83.3201 319.138 84.8509V104.5H310.481V100.472H310.255C309.74 101.451 309.082 102.279 308.279 102.957C307.488 103.634 306.553 104.142 305.474 104.481C304.408 104.82 303.203 104.989 301.861 104.989ZM304.703 98.9666C305.694 98.9666 306.585 98.7659 307.375 98.3643C308.178 97.9628 308.818 97.4107 309.295 96.7081C309.772 95.9929 310.01 95.1648 310.01 94.2237V91.4759C309.747 91.6139 309.427 91.7393 309.05 91.8523C308.686 91.9652 308.285 92.0719 307.846 92.1722C307.407 92.2726 306.955 92.3604 306.491 92.4357C306.026 92.511 305.581 92.58 305.154 92.6428C304.289 92.7808 303.548 92.9941 302.934 93.2827C302.331 93.5713 301.867 93.9477 301.541 94.4119C301.227 94.8636 301.07 95.4032 301.07 96.0305C301.07 96.9841 301.409 97.7119 302.087 98.2138C302.777 98.7157 303.649 98.9666 304.703 98.9666ZM341.084 75.5909V82.3665H322.846V75.5909H341.084ZM326.667 68.6648H335.87V95.4094C335.87 95.9741 335.958 96.4321 336.134 96.7834C336.322 97.1222 336.592 97.3668 336.943 97.5174C337.294 97.6554 337.715 97.7244 338.204 97.7244C338.555 97.7244 338.926 97.6931 339.315 97.6303C339.716 97.555 340.017 97.4923 340.218 97.4421L341.611 104.086C341.172 104.211 340.55 104.368 339.747 104.556C338.957 104.745 338.01 104.864 336.905 104.914C334.747 105.014 332.897 104.763 331.353 104.161C329.822 103.546 328.649 102.593 327.834 101.3C327.031 100.008 326.642 98.3832 326.667 96.4258V68.6648Z" fill="#1A202C"/>
<path d="M129.472 33.5V0.772726H142.384C144.867 0.772726 146.981 1.2468 148.728 2.19496C150.476 3.13246 151.807 4.4375 152.723 6.11008C153.65 7.77202 154.114 9.68963 154.114 11.8629C154.114 14.0362 153.645 15.9538 152.707 17.6158C151.77 19.2777 150.412 20.5721 148.633 21.4989C146.864 22.4258 144.723 22.8892 142.209 22.8892H133.979V17.3441H141.09C142.422 17.3441 143.519 17.1151 144.382 16.657C145.255 16.1882 145.905 15.5437 146.331 14.7234C146.768 13.8924 146.987 12.9389 146.987 11.8629C146.987 10.7763 146.768 9.82812 146.331 9.01846C145.905 8.19815 145.255 7.56427 144.382 7.11683C143.508 6.65874 142.4 6.42969 141.058 6.42969H136.392V33.5H129.472ZM158.48 33.5V8.95454H165.08V13.2372H165.336C165.783 11.7138 166.534 10.5632 167.589 9.78551C168.644 8.99716 169.858 8.60298 171.232 8.60298C171.573 8.60298 171.941 8.62429 172.335 8.6669C172.729 8.70952 173.075 8.76811 173.374 8.84268V14.8832C173.054 14.7873 172.612 14.7021 172.047 14.6275C171.483 14.5529 170.966 14.5156 170.497 14.5156C169.496 14.5156 168.601 14.734 167.813 15.1708C167.035 15.5969 166.417 16.1935 165.959 16.9606C165.512 17.7276 165.288 18.6119 165.288 19.6133V33.5H158.48ZM186.841 33.9794C184.359 33.9794 182.212 33.4521 180.401 32.3974C178.601 31.332 177.21 29.8512 176.23 27.9549C175.25 26.0479 174.76 23.8374 174.76 21.3232C174.76 18.7876 175.25 16.5717 176.23 14.6754C177.21 12.7685 178.601 11.2876 180.401 10.233C182.212 9.16761 184.359 8.63494 186.841 8.63494C189.323 8.63494 191.465 9.16761 193.265 10.233C195.076 11.2876 196.472 12.7685 197.452 14.6754C198.432 16.5717 198.922 18.7876 198.922 21.3232C198.922 23.8374 198.432 26.0479 197.452 27.9549C196.472 29.8512 195.076 31.332 193.265 32.3974C191.465 33.4521 189.323 33.9794 186.841 33.9794ZM186.873 28.706C188.002 28.706 188.945 28.3864 189.701 27.7472C190.458 27.0973 191.028 26.2131 191.411 25.0945C191.805 23.9759 192.003 22.7028 192.003 21.2752C192.003 19.8477 191.805 18.5746 191.411 17.456C191.028 16.3374 190.458 15.4531 189.701 14.8033C188.945 14.1534 188.002 13.8285 186.873 13.8285C185.733 13.8285 184.774 14.1534 183.997 14.8033C183.229 15.4531 182.649 16.3374 182.255 17.456C181.871 18.5746 181.679 19.8477 181.679 21.2752C181.679 22.7028 181.871 23.9759 182.255 25.0945C182.649 26.2131 183.229 27.0973 183.997 27.7472C184.774 28.3864 185.733 28.706 186.873 28.706ZM212.393 33.8995C210.529 33.8995 208.84 33.4201 207.328 32.4613C205.825 31.4918 204.632 30.0696 203.748 28.1946C202.874 26.3089 202.438 23.9972 202.438 21.2592C202.438 18.4467 202.89 16.1083 203.796 14.244C204.701 12.369 205.905 10.968 207.407 10.0412C208.92 9.10369 210.577 8.63494 212.377 8.63494C213.752 8.63494 214.897 8.86932 215.813 9.33807C216.74 9.79616 217.486 10.3714 218.05 11.0639C218.625 11.7457 219.062 12.4169 219.361 13.0774H219.568V0.772726H226.36V33.5H219.648V29.5689H219.361C219.041 30.2507 218.588 30.9272 218.002 31.5984C217.427 32.2589 216.676 32.8075 215.749 33.2443C214.833 33.6811 213.714 33.8995 212.393 33.8995ZM214.551 28.4822C215.648 28.4822 216.575 28.1839 217.331 27.5874C218.098 26.9801 218.684 26.1332 219.089 25.0465C219.504 23.9599 219.712 22.6868 219.712 21.2273C219.712 19.7678 219.51 18.5 219.105 17.424C218.7 16.348 218.114 15.517 217.347 14.9311C216.58 14.3452 215.648 14.0522 214.551 14.0522C213.432 14.0522 212.489 14.3558 211.722 14.9631C210.955 15.5703 210.374 16.4119 209.98 17.4879C209.586 18.5639 209.389 19.8104 209.389 21.2273C209.389 22.6548 209.586 23.9173 209.98 25.0146C210.385 26.1012 210.966 26.9535 211.722 27.5714C212.489 28.1786 213.432 28.4822 214.551 28.4822ZM247.697 23.049V8.95454H254.505V33.5H247.969V29.0415H247.713C247.159 30.4798 246.238 31.6357 244.949 32.5092C243.67 33.3828 242.11 33.8196 240.267 33.8196C238.626 33.8196 237.182 33.4467 235.936 32.701C234.689 31.9553 233.715 30.8952 233.012 29.521C232.319 28.1467 231.968 26.5007 231.957 24.5831V8.95454H238.764V23.3686C238.775 24.8175 239.164 25.9627 239.931 26.8043C240.698 27.646 241.726 28.0668 243.015 28.0668C243.835 28.0668 244.602 27.8803 245.316 27.5075C246.03 27.1239 246.605 26.5593 247.042 25.8136C247.49 25.0678 247.708 24.1463 247.697 23.049ZM271.04 33.9794C268.526 33.9794 266.363 33.4467 264.552 32.3814C262.752 31.3054 261.367 29.8139 260.397 27.907C259.439 26 258.959 23.8054 258.959 21.3232C258.959 18.8089 259.444 16.6037 260.413 14.7074C261.394 12.8004 262.784 11.3143 264.584 10.2489C266.385 9.17294 268.526 8.63494 271.008 8.63494C273.15 8.63494 275.025 9.02379 276.633 9.80149C278.242 10.5792 279.515 11.6712 280.453 13.0774C281.39 14.4837 281.907 16.1349 282.003 18.0312H275.579C275.397 16.8061 274.918 15.8207 274.14 15.0749C273.373 14.3185 272.367 13.9403 271.12 13.9403C270.065 13.9403 269.144 14.228 268.356 14.8033C267.578 15.3679 266.971 16.1935 266.534 17.2802C266.097 18.3668 265.879 19.6825 265.879 21.2273C265.879 22.7933 266.092 24.125 266.518 25.2223C266.955 26.3196 267.567 27.1559 268.356 27.7312C269.144 28.3065 270.065 28.5941 271.12 28.5941C271.898 28.5941 272.596 28.4343 273.214 28.1147C273.842 27.7951 274.359 27.3317 274.764 26.7244C275.179 26.1065 275.451 25.3661 275.579 24.5032H282.003C281.896 26.3782 281.385 28.0295 280.468 29.457C279.563 30.8739 278.311 31.9819 276.713 32.7809C275.115 33.5799 273.224 33.9794 271.04 33.9794ZM299.417 8.95454V14.0682H284.635V8.95454H299.417ZM287.991 3.07386H294.799V25.9574C294.799 26.5859 294.895 27.076 295.086 27.4276C295.278 27.7685 295.544 28.0082 295.885 28.1467C296.237 28.2852 296.642 28.3544 297.1 28.3544C297.419 28.3544 297.739 28.3278 298.059 28.2745C298.378 28.2106 298.623 28.1626 298.794 28.1307L299.864 33.1964C299.523 33.3029 299.044 33.4254 298.426 33.5639C297.808 33.7131 297.057 33.8036 296.173 33.8356C294.532 33.8995 293.094 33.6811 291.858 33.1804C290.633 32.6797 289.68 31.902 288.998 30.8473C288.316 29.7926 287.98 28.4609 287.991 26.8523V3.07386Z" fill="url(#paint0_linear_36_2368)"/>
<path d="M373.484 75.5909V82.3665H355.247V75.5909H373.484ZM359.067 68.6648H368.271V95.4094C368.271 95.9741 368.359 96.4321 368.534 96.7834C368.722 97.1222 368.992 97.3668 369.343 97.5174C369.695 97.6554 370.115 97.7244 370.604 97.7244C370.956 97.7244 371.326 97.6931 371.715 97.6303C372.116 97.555 372.418 97.4923 372.618 97.4421L374.011 104.086C373.572 104.211 372.951 104.368 372.148 104.556C371.357 104.745 370.41 104.864 369.306 104.914C367.148 105.014 365.297 104.763 363.754 104.161C362.223 103.546 361.05 102.593 360.234 101.3C359.431 100.008 359.042 98.3832 359.067 96.4258V68.6648ZM391.383 105.046C388.359 105.046 385.749 104.45 383.553 103.258C381.37 102.053 379.689 100.341 378.509 98.1197C377.342 95.8862 376.759 93.2325 376.759 90.1584C376.759 87.1721 377.349 84.5623 378.528 82.3288C379.708 80.0829 381.37 78.3388 383.516 77.0966C385.661 75.8419 388.19 75.2145 391.101 75.2145C393.158 75.2145 395.04 75.5344 396.747 76.1744C398.453 76.8143 399.928 77.7616 401.17 79.0163C402.412 80.2711 403.378 81.8207 404.068 83.6651C404.758 85.497 405.103 87.5987 405.103 89.9702V92.2663H379.977V86.9212H396.54C396.527 85.9425 396.295 85.0704 395.843 84.305C395.392 83.5397 394.771 82.9437 393.98 82.517C393.202 82.0779 392.305 81.8583 391.289 81.8583C390.26 81.8583 389.338 82.0904 388.522 82.5547C387.707 83.0064 387.06 83.6275 386.584 84.418C386.107 85.1959 385.856 86.0805 385.831 87.0717V92.511C385.831 93.6905 386.063 94.7256 386.527 95.6165C386.991 96.4948 387.65 97.1786 388.503 97.668C389.357 98.1573 390.373 98.402 391.552 98.402C392.368 98.402 393.108 98.2891 393.773 98.0632C394.438 97.8374 395.009 97.5049 395.486 97.0657C395.963 96.6265 396.32 96.087 396.559 95.4471L405.009 95.6918C404.658 97.5864 403.886 99.2364 402.694 100.642C401.515 102.034 399.965 103.12 398.046 103.898C396.126 104.663 393.905 105.046 391.383 105.046ZM417.953 104.989C416.109 104.989 414.472 104.682 413.041 104.067C411.623 103.44 410.5 102.499 409.672 101.244C408.857 99.9767 408.449 98.3894 408.449 96.4822C408.449 94.8762 408.731 93.5211 409.296 92.4169C409.86 91.3127 410.638 90.4156 411.63 89.7255C412.621 89.0354 413.763 88.5147 415.055 88.1634C416.347 87.7995 417.728 87.5548 419.196 87.4293C420.839 87.2788 422.163 87.1219 423.167 86.9588C424.171 86.7831 424.898 86.5385 425.35 86.2248C425.814 85.8986 426.047 85.4406 426.047 84.8509V84.7567C426.047 83.7906 425.714 83.044 425.049 82.517C424.384 81.9901 423.487 81.7266 422.358 81.7266C421.141 81.7266 420.162 81.9901 419.422 82.517C418.681 83.044 418.211 83.7718 418.01 84.7003L409.522 84.3991C409.773 82.6425 410.419 81.0741 411.46 79.6939C412.514 78.3011 413.957 77.2095 415.789 76.419C417.634 75.616 419.848 75.2145 422.433 75.2145C424.277 75.2145 425.978 75.4341 427.533 75.8732C429.089 76.2998 430.444 76.9272 431.599 77.7553C432.753 78.5709 433.644 79.5747 434.271 80.7667C434.911 81.9587 435.231 83.3201 435.231 84.8509V104.5H426.574V100.472H426.348C425.833 101.451 425.174 102.279 424.371 102.957C423.581 103.634 422.646 104.142 421.567 104.481C420.501 104.82 419.296 104.989 417.953 104.989ZM420.795 98.9666C421.787 98.9666 422.678 98.7659 423.468 98.3643C424.271 97.9628 424.911 97.4107 425.388 96.7081C425.865 95.9929 426.103 95.1648 426.103 94.2237V91.4759C425.839 91.6139 425.52 91.7393 425.143 91.8523C424.779 91.9652 424.378 92.0719 423.939 92.1722C423.499 92.2726 423.048 92.3604 422.583 92.4357C422.119 92.511 421.674 92.58 421.247 92.6428C420.381 92.7808 419.641 92.9941 419.026 93.2827C418.424 93.5713 417.96 93.9477 417.634 94.4119C417.32 94.8636 417.163 95.4032 417.163 96.0305C417.163 96.9841 417.502 97.7119 418.179 98.2138C418.869 98.7157 419.741 98.9666 420.795 98.9666ZM440.859 104.5V75.5909H449.61V80.8984H449.93C450.533 79.1418 451.549 77.7553 452.979 76.739C454.41 75.7227 456.116 75.2145 458.099 75.2145C460.106 75.2145 461.825 75.7289 463.256 76.7578C464.686 77.7867 465.596 79.1669 465.985 80.8984H466.286C466.825 79.1794 467.879 77.8055 469.448 76.7766C471.016 75.7352 472.867 75.2145 475 75.2145C477.735 75.2145 479.956 76.0928 481.663 77.8494C483.369 79.5935 484.222 81.9901 484.222 85.0391V104.5H475.019V87.147C475.019 85.7041 474.649 84.6062 473.908 83.8533C473.168 83.0879 472.208 82.7053 471.029 82.7053C469.761 82.7053 468.764 83.1193 468.036 83.9474C467.321 84.763 466.963 85.8609 466.963 87.2411V104.5H458.118V87.0529C458.118 85.7103 457.754 84.6501 457.026 83.8722C456.298 83.0942 455.338 82.7053 454.146 82.7053C453.343 82.7053 452.634 82.8997 452.02 83.2887C451.405 83.6651 450.922 84.2047 450.57 84.9073C450.232 85.61 450.062 86.4381 450.062 87.3917V104.5H440.859ZM515.164 84.418L506.713 84.6438C506.626 84.0415 506.387 83.5083 505.998 83.044C505.609 82.5672 505.101 82.1971 504.474 81.9336C503.859 81.6576 503.144 81.5195 502.328 81.5195C501.262 81.5195 500.352 81.7328 499.599 82.1594C498.859 82.5861 498.495 83.1632 498.507 83.891C498.495 84.4556 498.721 84.945 499.185 85.359C499.662 85.7731 500.509 86.1056 501.726 86.3565L507.297 87.4105C510.183 87.9626 512.328 88.8786 513.734 90.1584C515.152 91.4382 515.867 93.1321 515.879 95.2401C515.867 97.2225 515.277 98.9478 514.11 100.416C512.956 101.884 511.375 103.026 509.367 103.841C507.36 104.644 505.063 105.046 502.479 105.046C498.351 105.046 495.095 104.199 492.711 102.505C490.339 100.799 488.984 98.5149 488.645 95.6541L497.736 95.4283C497.937 96.4822 498.457 97.2853 499.298 97.8374C500.139 98.3894 501.211 98.6655 502.516 98.6655C503.696 98.6655 504.656 98.4459 505.396 98.0067C506.136 97.5676 506.513 96.9841 506.525 96.2564C506.513 95.6039 506.224 95.0832 505.659 94.6942C505.095 94.2927 504.21 93.979 503.006 93.7532L497.962 92.7933C495.063 92.2663 492.905 91.2939 491.487 89.8761C490.069 88.4457 489.367 86.6263 489.379 84.418C489.367 82.4857 489.881 80.8357 490.923 79.468C491.964 78.0878 493.445 77.0339 495.364 76.3061C497.284 75.5784 499.549 75.2145 502.159 75.2145C506.074 75.2145 509.16 76.0363 511.419 77.68C513.677 79.3112 514.926 81.5572 515.164 84.418Z" fill="url(#paint1_linear_36_2368)"/>
<defs>
<linearGradient id="paint0_linear_36_2368" x1="258" y1="-21.5" x2="258" y2="120.5" gradientUnits="userSpaceOnUse">
<stop stop-color="#DE4396"/>
<stop offset="1" stop-color="#0D1C9F" stop-opacity="0"/>
</linearGradient>
<linearGradient id="paint1_linear_36_2368" x1="518" y1="-21.5" x2="445.828" y2="242.792" gradientUnits="userSpaceOnUse">
<stop stop-color="#F7666F"/>
<stop offset="1" stop-color="#406AFF"/>
</linearGradient>
</defs>
</svg>