<svg xmlns="http://www.w3.org/2000/svg" width="58" height="58" viewBox="0 0 58 58" fill="none">
<g clip-path="url(#clip0_36_2408)">
<path d="M25.2053 19.6755C24.9476 19.6629 24.6914 19.7184 24.4623 19.8363H24.0155L24.234 19.9819C24.0914 20.0925 23.97 20.229 23.8763 20.3849C23.7396 20.6122 23.6672 20.8724 23.6667 21.1377V21.1386V36.8615V36.8624C23.6672 37.1277 23.7396 37.3878 23.8763 37.6152L24.3048 37.3576L23.8763 37.6152C24.0129 37.8426 24.2087 38.0286 24.4428 38.1536C24.6768 38.2785 24.9403 38.3376 25.2053 38.3246L25.1808 37.8252L25.2053 38.3246C25.4702 38.3116 25.7267 38.2269 25.9474 38.0797L37.7378 30.221C37.939 30.0872 38.104 29.9056 38.2181 29.6926C38.3322 29.4796 38.3919 29.2417 38.3919 29C38.3919 28.7584 38.3322 28.5205 38.2181 28.3075C38.104 28.0944 37.939 27.9129 37.7378 27.779L27.3194 20.8363H27.3202L25.9474 19.9204C25.7267 19.7731 25.4702 19.6885 25.2053 19.6755ZM29 52.6667C15.9289 52.6667 5.33337 42.0711 5.33337 29C5.33337 15.9289 15.9289 5.33337 29 5.33337C42.0711 5.33337 52.6667 15.9289 52.6667 29C52.6667 42.0711 42.0711 52.6667 29 52.6667Z" fill="#57007B" stroke="white"/>
</g>
<defs>
<clipPath id="clip0_36_2408">
<rect width="58" height="58" fill="white"/>
</clipPath>
</defs>
</svg>